<?xml version="1.0" encoding="utf-8"?>
<!-- Generator: Adobe Illustrator 24.1.1, SVG Export Plug-In . SVG Version: 6.00 Build 0)  -->
<svg version="1.1" id="Layer_1" xmlns="http://www.w3.org/2000/svg" xmlns:xlink="http://www.w3.org/1999/xlink" x="0px" y="0px"
	 viewBox="0 0 512 512" style="enable-background:new 0 0 512 512;" xml:space="preserve">
<style type="text/css">
	.st0{fill:#333E48;}
	.st1{fill:#009BDE;}
</style>
<g>
	<path class="st0" d="M512.1,256.1C512.1,114.8,397.2,0,256,0C114.8,0-0.1,114.8-0.1,256.1c0,133.4,102.6,243.3,233,255h0.6
		c2.1,0.2,4.3,0.3,6.4,0.5l1.2,0.1c1.9,0.1,3.9,0.2,5.9,0.3h1.6c2.4,0,4.8,0.1,7.3,0.1c2.5,0,4.6,0,6.9-0.1h1c2-0.1,4.1-0.1,6.1-0.2
		h0.4c4.5-0.3,9.1-0.6,13.5-1.1C412,496.6,512.1,387.8,512.1,256.1z M283.1,486.2l-2.5-70.8l61.8-37.9c14.5,9.9,33.3,10.9,48.7,2.5
		c15.4-8.4,24.8-24.7,24.3-42.3c-1-24.6-20.7-44.2-45.2-45.2c-13.9-0.5-27.3,5.3-36.5,15.8c-9.2,10.5-13.2,24.5-10.9,38.2l-43.6,27
		l-3.2-89.2l60.9-37.2c21.4,16,51.2,14.2,70.5-4.1c19.4-18.3,22.8-48,8-70.2c-14.8-22.2-43.4-30.6-67.8-19.9
		c-24.4,10.7-37.6,37.5-31.2,63.4l-41.9,26l-2.5-71.2c19.9-7.7,32.7-27.3,31.9-48.6c-1-24.9-20.3-45.2-45.1-47.6
		c-24.8-2.4-47.6,13.9-53.3,38.2c-5.7,24.3,7.3,49,30.6,58l-4.5,147.5L186,289.4c3-12.4,1.6-25.5-4.1-37
		c-9.1-19-27.5-32.4-48.5-33.7c-25.9-1.7-49.8,14.1-58.4,38.7c-8.5,24.5,0.3,51.8,21.7,66.6c21.4,14.8,50,13.5,69.9-3.2l63.6,40.2
		l-3.8,125c-113.8-14.5-202.2-112-202.2-229.8C24.3,128.3,128.2,24.4,256,24.4c127.8,0,231.7,103.9,231.7,231.7
		C487.7,374.7,398.1,472.7,283.1,486.2z"/>
	<path class="st1" d="M254.5,94.4c16.6,0,30.1,13.5,30.2,30.2c0,16.7-13.5,30.2-30.2,30.2c-16.7,0-30.2-13.5-30.2-30.2
		C224.4,107.9,237.9,94.4,254.5,94.4z M368.2,311.7c15.1,0,27.4,12.2,27.4,27.3c0,11.1-6.6,21.1-16.8,25.3
		c-10.2,4.3-22,1.9-29.9-5.9c-7.8-7.8-10.2-19.6-6-29.8C347.2,318.4,357.2,311.7,368.2,311.7z M385.1,232.2
		c-16,7.8-35.3,1.1-43.1-14.9c-5.7-11.7-3.8-25.7,4.8-35.5c8.6-9.8,22.3-13.4,34.6-9.1s20.9,15.5,21.7,28.5
		C404,214.3,396.8,226.5,385.1,232.2z M128.7,241.2c19.2,0,34.7,15.6,34.8,34.8c0,19.2-15.6,34.7-34.7,34.7
		c-19.2,0-34.7-15.6-34.7-34.7C94,256.8,109.5,241.2,128.7,241.2z"/>
</g>
</svg>
